<svg xmlns="http://www.w3.org/2000/svg" viewBox="0 0 400 250">
  <rect x="0" y="0" width="400" height="250" fill="white" />

  <!-- Timeline -->
  <line x1="20" y1="200" x2="350" y2="200" stroke="black" stroke-width="2"/>

  <!-- Time markers -->
  <line x1="20" y1="195" x2="20" y2="205" stroke="black" stroke-width="2"/>
  <line x1="350" y1="195" x2="350" y2="205" stroke="black" stroke-width="2"/>

  <!-- Collection A -->
  <text x="0" y="30" font-family="Verdana" font-size="9">A[]</text>
  <!-- Period 1 -->
  <rect x="20" y="35" width="130" height="30" fill="#f4a261" stroke="#e76f51" stroke-width="2"/>
  <text x="25" y="55" font-family="Verdana" font-size="14" fill="white">Period A1</text>
  <!-- Period 2 -->
  <rect x="180" y="35" width="100" height="30" fill="#f4a261" stroke="#e76f51" stroke-width="2"/>
  <text x="185" y="55" font-family="Verdana" font-size="14" fill="white">Period A2</text>

  <!-- Collection B -->
  <text x="0" y="80" font-family="Verdana" font-size="9">B[]</text>
  <!-- Period 1 -->
  <rect x="20" y="85" width="200" height="30" fill="#f4a261" stroke="#e76f51" stroke-width="2"/>
  <text x="25" y="105" font-family="Verdana" font-size="14" fill="white">Period B1</text>

  <!-- Collection C -->
  <text x="0" y="130" font-family="Verdana" font-size="9">C[]</text>
  <!-- Period 1 -->
  <rect x="100" y="135" width="250" height="30" fill="#f4a261" stroke="#e76f51" stroke-width="2"/>
  <text x="105" y="155" font-family="Verdana" font-size="14" fill="white">Period C1</text>

  <!-- Overlap areas -->
  <rect x="100" y="185" width="50" height="30" fill="#2a9d8f" stroke="#264653" stroke-width="2"/>
  <text x="105" y="205" font-family="Verdana" font-size="10" fill="white">Overlap</text>
  <rect x="180" y="185" width="40" height="30" fill="#2a9d8f" stroke="#264653" stroke-width="2"/>
  <text x="182" y="205" font-family="Verdana" font-size="9" fill="white">Overlap</text>

  <!-- Overlap indicators -->
  <line x1="100" y1="65" x2="100" y2="215" stroke="#264653" stroke-width="2" stroke-dasharray="4"/>
  <line x1="150" y1="65" x2="150" y2="215" stroke="#264653" stroke-width="2" stroke-dasharray="4"/>
  <line x1="180" y1="65" x2="180" y2="215" stroke="#264653" stroke-width="2" stroke-dasharray="4"/>
  <line x1="220" y1="65" x2="220" y2="215" stroke="#264653" stroke-width="2" stroke-dasharray="4"/>

  <!-- Legend -->
  <text x="20" y="230" font-family="Verdana" font-size="12">Start</text>
  <text x="330" y="230" font-family="Verdana" font-size="12">End</text>
</svg>