<svg xmlns="http://www.w3.org/2000/svg" viewBox="0 0 400 500">
  <rect x="0" y="0" width="400" height="500" fill="white" />

  <!-- Timeline -->
  <line x1="20" y1="450" x2="350" y2="450" stroke="black" stroke-width="2"/>

  <!-- Time markers -->
  <line x1="20" y1="445" x2="20" y2="455" stroke="black" stroke-width="2"/>
  <line x1="350" y1="445" x2="350" y2="455" stroke="black" stroke-width="2"/>

  <!-- Period 1 -->
  <rect x="10" y="35" width="80" height="30" fill="#f4a261" stroke="#e76f51" stroke-width="2"/>
  <text x="15" y="55" font-family="Verdana" font-size="14" fill="white">Period 1</text>
  <!-- Period 2 -->
  <rect x="100" y="85" width="150" height="30" fill="#f4a261" stroke="#e76f51" stroke-width="2"/>
  <text x="105" y="105" font-family="Verdana" font-size="14" fill="white">Period 2</text>
  <!-- Period 3 -->
  <rect x="200" y="135" width="150" height="30" fill="#f4a261" stroke="#e76f51" stroke-width="2"/>
  <text x="205" y="155" font-family="Verdana" font-size="14" fill="white">Period 3</text>
  <!-- Period 4 -->
  <rect x="40" y="185" width="150" height="30" fill="#f4a261" stroke="#e76f51" stroke-width="2"/>
  <text x="45" y="205" font-family="Verdana" font-size="14" fill="white">Period 4</text>
  <!-- Period 5 -->
  <rect x="120" y="235" width="200" height="30" fill="#9f86c0" stroke="#5e548e" stroke-width="2"/>
  <text x="125" y="255" font-family="Verdana" font-size="14" fill="white">Intersect Period</text>


  <!-- Intersection areas -->
  <rect x="120" y="285" width="130" height="30" fill="#2a9d8f" stroke="#264653" stroke-width="2"/>
  <rect x="200" y="335" width="120" height="30" fill="#2a9d8f" stroke="#264653" stroke-width="2"/>
  <rect x="120" y="385" width="70" height="30" fill="#2a9d8f" stroke="#264653" stroke-width="2"/>

  <!-- Intersection indicators -->
  <line x1="120" y1="115" x2="120" y2="285" stroke="#264653" stroke-width="2" stroke-dasharray="4"/>
  <line x1="250" y1="115" x2="250" y2="285" stroke="#264653" stroke-width="2" stroke-dasharray="4"/>
  <line x1="200" y1="165" x2="200" y2="335" stroke="blue" stroke-width="2" stroke-dasharray="4"/>
  <line x1="320" y1="165" x2="320" y2="335" stroke="blue" stroke-width="2" stroke-dasharray="4"/>
  <line x1="120" y1="215" x2="120" y2="385" stroke="red" stroke-width="2" stroke-dasharray="4"/>
  <line x1="190" y1="215" x2="190" y2="385" stroke="red" stroke-width="2" stroke-dasharray="4"/>

  <!-- Legend -->
  <text x="20" y="470" font-family="Verdana" font-size="12">Start</text>
  <text x="330" y="470" font-family="Verdana" font-size="12">End</text>
</svg>