<svg xmlns="http://www.w3.org/2000/svg" viewBox="0 0 400 520">
  <rect x="0" y="0" width="400" height="520" fill="white" />


  <!-- Divider -->
  <line x1="0" y1="250" x2="400" y2="250" stroke="#ccc" stroke-width="1" stroke-dasharray="1"/>

  <!-- ||||||||||||||||||||||||||||||||||||||||||||||||||||||||||||||||||||||| -->
  <!-- Example 1 -->
  <!-- ||||||||||||||||||||||||||||||||||||||||||||||||||||||||||||||||||||||| -->
  <!-- Timeline -->
  <line x1="20" y1="200" x2="350" y2="200" stroke="black" stroke-width="2"/>

  <!-- Time markers -->
  <line x1="20" y1="195" x2="20" y2="205" stroke="black" stroke-width="2"/>
  <line x1="350" y1="195" x2="350" y2="205" stroke="black" stroke-width="2"/>

  <!-- Period A -->
  <rect x="60" y="35" width="250" height="30" fill="#9f86c0" stroke="#5e548e" stroke-width="2"/>
  <text x="70" y="55" font-family="Verdana" font-size="14" fill="white">Period A</text>

  <!-- Period B -->
  <rect x="120" y="85" width="80" height="30" fill="#f4a261" stroke="#e76f51" stroke-width="2"/>
  <text x="130" y="105" font-family="Verdana" font-size="14"  fill="white">Period B</text>

  <!-- Subtract areas -->
  <rect x="60" y="185" width="60" height="30" fill="#2a9d8f" stroke="#264653" stroke-width="2"/>
  <text x="65" y="205" font-family="Verdana" font-size="11" fill="white">Subtract</text>
  <rect x="200" y="185" width="110" height="30" fill="#2a9d8f" stroke="#264653" stroke-width="2"/>
  <text x="210" y="205" font-family="Verdana" font-size="14" fill="white">Subtract</text>

  <!-- Subtract indicators -->
  <line x1="60" y1="65" x2="60" y2="185" stroke="#264653" stroke-width="2" stroke-dasharray="4"/>
  <line x1="120" y1="65" x2="120" y2="185" stroke="#264653" stroke-width="2" stroke-dasharray="4"/>
  <line x1="200" y1="65" x2="200" y2="185" stroke="#264653" stroke-width="2" stroke-dasharray="4"/>
  <line x1="310" y1="65" x2="310" y2="185" stroke="#264653" stroke-width="2" stroke-dasharray="4"/>

  <!-- Legend -->
  <text x="20" y="230" font-family="Verdana" font-size="12">Start</text>
  <text x="330" y="230" font-family="Verdana" font-size="12">End</text>
  <!-- ||||||||||||||||||||||||||||||||||||||||||||||||||||||||||||||||||||||| -->

  <!-- ||||||||||||||||||||||||||||||||||||||||||||||||||||||||||||||||||||||| -->
  <!-- Example 2 -->
  <!-- ||||||||||||||||||||||||||||||||||||||||||||||||||||||||||||||||||||||| -->
  <!-- Timeline -->
  <line x1="20" y1="470" x2="350" y2="470" stroke="black" stroke-width="2"/>

  <!-- Time markers -->
  <line x1="20" y1="465" x2="20" y2="475" stroke="black" stroke-width="2"/>
  <line x1="350" y1="465" x2="350" y2="475" stroke="black" stroke-width="2"/>

  <!-- Period A -->
  <rect x="200" y="285" width="160" height="30" fill="#9f86c0" stroke="#5e548e" stroke-width="2"/>
  <text x="210" y="305" font-family="Verdana" font-size="14" fill="white">Period A</text>

  <!-- Period B -->
  <rect x="20" y="335" width="220" height="30" fill="#f4a261" stroke="#e76f51" stroke-width="2"/>
  <text x="30" y="355" font-family="Verdana" font-size="14" fill="white">Period B</text>

  <!-- Period C -->
  <rect x="150" y="385" width="150" height="30" fill="#f4a261" stroke="#e76f51" stroke-width="2"/>
  <text x="160" y="405" font-family="Verdana" font-size="14" fill="white">Period C</text>

  <!-- Subtract areas -->
  <rect x="300" y="455" width="60" height="30" fill="#2a9d8f" stroke="#264653" stroke-width="2"/>
  <text x="305" y="475" font-family="Verdana" font-size="11" fill="white">Subtract</text>

  <!-- Subtract indicators -->
  <line x1="300" y1="315" x2="300" y2="455" stroke="#264653" stroke-width="2" stroke-dasharray="4"/>
  <line x1="360" y1="315" x2="360" y2="455" stroke="#264653" stroke-width="2" stroke-dasharray="4"/>

  <!-- Legend -->
  <text x="20" y="500" font-family="Verdana" font-size="12">Start</text>
  <text x="330" y="500" font-family="Verdana" font-size="12">End</text>
</svg>