<svg xmlns="http://www.w3.org/2000/svg" viewBox="0 0 400 250">
  <rect x="0" y="0" width="400" height="250" fill="white"/>

  <!-- Timeline -->
  <line x1="20" y1="200" x2="350" y2="200" stroke="black" stroke-width="2"/>

  <!-- Time markers -->
  <line x1="20" y1="195" x2="20" y2="205" stroke="black" stroke-width="2"/>
  <line x1="350" y1="195" x2="350" y2="205" stroke="black" stroke-width="2"/>

  <!-- Period A -->
  <rect x="60" y="35" width="250" height="30" fill="#9f86c0" stroke="#5e548e" stroke-width="2"/>
  <text x="70" y="55" font-family="Verdana" font-size="14" fill="white">Period A</text>

  <!-- Period B -->
  <rect x="120" y="85" width="80" height="30" fill="#f4a261" stroke="#e76f51" stroke-width="2"/>
  <text x="130" y="105" font-family="Verdana" font-size="14" fill="white">Period B</text>

  <!-- Subtract areas -->
  <rect x="60" y="185" width="60" height="30" fill="#2a9d8f" stroke="#264653" stroke-width="2"/>
  <text x="65" y="205" font-family="Verdana" font-size="11" fill="white">Subtract</text>
  <rect x="200" y="185" width="110" height="30" fill="#2a9d8f" stroke="#264653" stroke-width="2"/>
  <text x="210" y="205" font-family="Verdana" font-size="14" fill="white">Subtract</text>

  <!-- Subtract indicators -->
  <line x1="60" y1="65" x2="60" y2="185" stroke="#264653" stroke-width="2" stroke-dasharray="4"/>
  <line x1="120" y1="65" x2="120" y2="185" stroke="#264653" stroke-width="2" stroke-dasharray="4"/>
  <line x1="200" y1="65" x2="200" y2="185" stroke="#264653" stroke-width="2" stroke-dasharray="4"/>
  <line x1="310" y1="65" x2="310" y2="185" stroke="#264653" stroke-width="2" stroke-dasharray="4"/>

  <!-- Legend -->
  <text x="20" y="230" font-family="Verdana" font-size="12">Start</text>
  <text x="330" y="230" font-family="Verdana" font-size="12">End</text>
</svg>